<svg xmlns="http://www.w3.org/2000/svg" width="51.791" height="51.791" viewBox="0 0 51.791 51.791"><defs><style>.a{fill:#fff;}</style></defs><path class="a" d="M216.913,211.956A4.957,4.957,0,1,1,211.956,207,4.956,4.956,0,0,1,216.913,211.956Zm0,0" transform="translate(-186.061 -186.061)"/><path class="a" d="M159.266,138.909a4.924,4.924,0,0,0-2.822-2.822,8.227,8.227,0,0,0-2.761-.512c-1.568-.071-2.038-.087-6.009-.087s-4.441.015-6.009.087a8.232,8.232,0,0,0-2.761.512,4.926,4.926,0,0,0-2.822,2.822,8.23,8.23,0,0,0-.512,2.761c-.072,1.568-.087,2.038-.087,6.009s.015,4.441.087,6.009a8.227,8.227,0,0,0,.512,2.761,4.924,4.924,0,0,0,2.822,2.822,8.217,8.217,0,0,0,2.761.512c1.568.072,2.038.087,6.008.087s4.441-.015,6.009-.087a8.218,8.218,0,0,0,2.761-.512,4.924,4.924,0,0,0,2.822-2.822,8.234,8.234,0,0,0,.512-2.761c.072-1.568.087-2.038.087-6.009s-.015-4.441-.087-6.009A8.217,8.217,0,0,0,159.266,138.909Zm-11.592,16.405a7.635,7.635,0,1,1,7.635-7.636A7.636,7.636,0,0,1,147.675,155.314Zm7.937-13.788a1.784,1.784,0,1,1,1.784-1.784A1.784,1.784,0,0,1,155.612,141.525Zm0,0" transform="translate(-121.78 -121.783)"/><path class="a" d="M25.9,0a25.9,25.9,0,1,0,25.9,25.9A25.9,25.9,0,0,0,25.9,0Zm14.78,32.026a10.909,10.909,0,0,1-.691,3.61,7.6,7.6,0,0,1-4.349,4.349,10.917,10.917,0,0,1-3.609.691c-1.586.072-2.092.09-6.13.09s-4.545-.017-6.131-.09a10.917,10.917,0,0,1-3.609-.691,7.6,7.6,0,0,1-4.349-4.349,10.907,10.907,0,0,1-.691-3.609c-.073-1.586-.09-2.093-.09-6.131s.017-4.545.09-6.13a10.911,10.911,0,0,1,.691-3.61,7.608,7.608,0,0,1,4.349-4.349,10.92,10.92,0,0,1,3.61-.691c1.586-.072,2.092-.09,6.13-.09s4.545.017,6.13.09a10.922,10.922,0,0,1,3.61.69,7.605,7.605,0,0,1,4.349,4.349,10.908,10.908,0,0,1,.691,3.61c.072,1.586.089,2.092.089,6.13S40.748,30.44,40.675,32.026Zm0,0"/></svg>