<svg xmlns="http://www.w3.org/2000/svg" width="49.652" height="49.652" viewBox="0 0 49.652 49.652"><defs><style>.a{fill:#fff;}</style></defs><path class="a" d="M24.826,0A24.826,24.826,0,1,0,49.652,24.826,24.854,24.854,0,0,0,24.826,0Z"/><path d="M30.751,21.3a4.7,4.7,0,0,0-4.269,2.354V21.634H21.743c.062,1.336,0,14.258,0,14.258h4.739V27.927a3.194,3.194,0,0,1,.155-1.157,2.6,2.6,0,0,1,2.432-1.735c1.715,0,2.4,1.307,2.4,3.226v7.628h4.74V27.713C36.207,23.336,33.868,21.3,30.751,21.3Zm-4.272,2.4h-.03a.356.356,0,0,0,.03-.049Z" transform="translate(1.47 -1.626)"/><rect width="4.739" height="14.258" transform="translate(15.847 20.008)"/><path d="M17.968,15.777a2.47,2.47,0,1,0-.063,4.926h.031a2.471,2.471,0,1,0,.032-4.926Z" transform="translate(0.281 -2.643)"/></svg>